<svg xmlns="http://www.w3.org/2000/svg" width="600" height="600" viewBox="0 0 600 600">
<rect width="100%" height="100%" fill="#FAFAFA"/>
<text x="300" y="30" text-anchor="middle" font-size="16" font-weight="bold">Model Performance by Linguistic Dimension</text>
<circle cx="300" cy="300" r="40.0" fill="none" stroke="#DDD" stroke-width="1"/>
<text x="345.0" y="303" font-size="10" fill="#999">20%</text>
<circle cx="300" cy="300" r="80.0" fill="none" stroke="#DDD" stroke-width="1"/>
<text x="385.0" y="303" font-size="10" fill="#999">40%</text>
<circle cx="300" cy="300" r="120.0" fill="none" stroke="#DDD" stroke-width="1"/>
<text x="425.0" y="303" font-size="10" fill="#999">60%</text>
<circle cx="300" cy="300" r="160.0" fill="none" stroke="#DDD" stroke-width="1"/>
<text x="465.0" y="303" font-size="10" fill="#999">80%</text>
<circle cx="300" cy="300" r="200.0" fill="none" stroke="#DDD" stroke-width="1"/>
<text x="505.0" y="303" font-size="10" fill="#999">100%</text>
<line x1="300" y1="300" x2="300.0" y2="100.0" stroke="#CCC" stroke-width="1"/>
<text x="300.0" y="43.0" text-anchor="middle" font-size="11" fill="#333">Semantic</text>
<text x="300.0" y="57.0" text-anchor="middle" font-size="11" fill="#333">Judgment</text>
<line x1="300" y1="300" x2="473.2050807568877" y2="200.0" stroke="#CCC" stroke-width="1"/>
<text x="516.5063509461097" y="168.0" text-anchor="middle" font-size="11" fill="#333">Quantity</text>
<text x="516.5063509461097" y="182.0" text-anchor="middle" font-size="11" fill="#333">Judgment</text>
<line x1="300" y1="300" x2="473.20508075688775" y2="400.0" stroke="#CCC" stroke-width="1"/>
<text x="516.5063509461097" y="417.99999999999994" text-anchor="middle" font-size="11" fill="#333">Acceptability</text>
<text x="516.5063509461097" y="431.99999999999994" text-anchor="middle" font-size="11" fill="#333">Judgment</text>
<line x1="300" y1="300" x2="300.0" y2="500.0" stroke="#CCC" stroke-width="1"/>
<text x="300.0" y="543.0" text-anchor="middle" font-size="11" fill="#333">Ambiguity</text>
<text x="300.0" y="557.0" text-anchor="middle" font-size="11" fill="#333">Ident.</text>
<line x1="300" y1="300" x2="126.7949192431123" y2="400.00000000000006" stroke="#CCC" stroke-width="1"/>
<text x="83.49364905389038" y="418.0000000000001" text-anchor="middle" font-size="11" fill="#333">Interchange-</text>
<text x="83.49364905389038" y="432.0000000000001" text-anchor="middle" font-size="11" fill="#333">ability</text>
<line x1="300" y1="300" x2="126.79491924311228" y2="199.99999999999997" stroke="#CCC" stroke-width="1"/>
<text x="83.49364905389035" y="167.99999999999997" text-anchor="middle" font-size="11" fill="#333">Pragmatic</text>
<text x="83.49364905389035" y="181.99999999999997" text-anchor="middle" font-size="11" fill="#333">Focus</text>
<polygon points="300.0,100.0 473.2,200.0 473.2,400.0 300.0,450.0 126.8,400.0 126.8,200.0" fill="#E74C3C" fill-opacity="0.15" stroke="#E74C3C" stroke-width="2"/>
<polygon points="300.0,100.0 473.2,200.0 473.2,400.0 300.0,450.0 126.8,400.0 126.8,200.0" fill="#3498DB" fill-opacity="0.15" stroke="#3498DB" stroke-width="2"/>
<polygon points="300.0,100.0 473.2,200.0 473.2,400.0 300.0,450.0 170.1,375.0 170.1,225.0" fill="#2ECC71" fill-opacity="0.15" stroke="#2ECC71" stroke-width="2"/>
<polygon points="300.0,100.0 444.3,216.7 473.2,400.0 300.0,400.0 170.1,375.0 126.8,200.0" fill="#F39C12" fill-opacity="0.15" stroke="#F39C12" stroke-width="2"/>
<rect x="30" y="62" width="12" height="12" fill="#E74C3C" fill-opacity="0.5" stroke="#E74C3C" stroke-width="1"/>
<text x="48" y="71" font-size="11" fill="#333">GPT-4.1 (School GenAI)</text>
<rect x="30" y="82" width="12" height="12" fill="#3498DB" fill-opacity="0.5" stroke="#3498DB" stroke-width="1"/>
<text x="48" y="91" font-size="11" fill="#333">Qwen3-Max (School GenAI)</text>
<rect x="30" y="102" width="12" height="12" fill="#2ECC71" fill-opacity="0.5" stroke="#2ECC71" stroke-width="1"/>
<text x="48" y="111" font-size="11" fill="#333">Gemini 2.5 Pro (School GenAI)</text>
<rect x="30" y="122" width="12" height="12" fill="#F39C12" fill-opacity="0.5" stroke="#F39C12" stroke-width="1"/>
<text x="48" y="131" font-size="11" fill="#333">Doubao 1.5 Pro (Volcengine)</text>
</svg>